<svg height='100px' width='100px'  fill="#1A1A1A" xmlns="http://www.w3.org/2000/svg" data-name="Layer 1" viewBox="0 0 512 512" x="0px" y="0px"><title>Binoculars</title><path d="M465.882,169.238a6.067,6.067,0,0,0-5.861,4.492A86.3,86.3,0,0,0,291.6,148.758c0,.059,0,.117,0,.177a5.971,5.971,0,0,1-1.086,3.431,86.045,86.045,0,0,0-3.064,21.365,5.82,5.82,0,0,1,0,3.014,86.483,86.483,0,0,0,86.376,84.789c45.543,0,83.177-35.47,86.177-80.232V429.058a6,6,0,0,0,12,0V175.238A6.1,6.1,0,0,0,465.882,169.238ZM373.7,254.655a79.417,79.417,0,1,1,79.417-79.417A79.507,79.507,0,0,1,373.7,254.655Z"></path><path d="M275.6,169a97.934,97.934,0,0,1,1.925-14H234.478a97.934,97.934,0,0,1,1.925,14Z"></path><path d="M138.3,261.534a86.38,86.38,0,0,0,86.257-84.789,5.834,5.834,0,0,1,0-3.014,85.951,85.951,0,0,0-3.062-21.365,5.967,5.967,0,0,1-1.081-3.431c0-.06.007-.118.009-.177A86.292,86.292,0,1,0,138.3,261.534Zm0-160.469a74.173,74.173,0,1,1-74.173,74.173A74.257,74.257,0,0,1,138.3,101.065Z"></path><circle cx="138.296" cy="175.238" r="62.173" transform="translate(-76.526 235.946) rotate(-67.5)"></circle><circle cx="373.704" cy="175.238" r="67.417" transform="translate(68.795 453.435) rotate(-67.5)"></circle></svg>