<svg width="113" height="126" viewBox="0 0 113 126" fill="none" xmlns="http://www.w3.org/2000/svg">
<path d="M95.9926 59.0543C95.7318 59.0542 95.4783 59.1401 95.2714 59.2988C95.0644 59.4574 94.9155 59.6798 94.8478 59.9316C94.7777 55.9412 93.2939 52.1051 90.6605 49.1062C88.0271 46.1072 84.415 44.14 80.4671 43.5546C76.5193 42.9693 72.4917 43.8038 69.1015 45.9096C65.7112 48.0154 63.1781 51.2559 61.9531 55.0543C61.9531 55.0658 61.9531 55.0771 61.9531 55.0889C61.953 55.3287 61.879 55.5627 61.741 55.759C61.3672 57.1193 61.1661 58.5213 61.1426 59.9318C61.1943 60.1247 61.1943 60.3277 61.1426 60.5205C61.2291 64.9391 63.044 69.1478 66.1979 72.2438C69.3518 75.3397 73.5934 77.0762 78.0129 77.0809C86.908 77.0809 94.2584 70.1531 94.8443 61.4105V109.8C94.8443 110.111 94.9678 110.409 95.1876 110.629C95.4073 110.849 95.7054 110.972 96.0162 110.972C96.327 110.972 96.6251 110.849 96.8448 110.629C97.0646 110.409 97.1881 110.111 97.1881 109.8V60.2262C97.1829 59.9129 97.0546 59.6142 96.8308 59.3949C96.6071 59.1755 96.3059 59.0532 95.9926 59.0543V59.0543ZM77.9883 75.7373C74.9205 75.7373 71.9215 74.8276 69.3708 73.1232C66.82 71.4188 64.8319 68.9963 63.6579 66.162C62.4839 63.3277 62.1767 60.209 62.7752 57.2001C63.3737 54.1912 64.851 51.4274 67.0203 49.2581C69.1895 47.0889 71.9533 45.6116 74.9622 45.0131C77.9711 44.4146 81.0898 44.7217 83.9241 45.8958C86.7584 47.0698 89.1809 49.0579 90.8853 51.6086C92.5897 54.1594 93.4994 57.1584 93.4994 60.2262C93.4948 64.3386 91.8591 68.2812 88.9512 71.1891C86.0433 74.097 82.1007 75.7327 77.9883 75.7373V75.7373Z" fill="white"/>
<path d="M58.8281 59.0078C58.8874 58.0885 59.0131 57.1747 59.2041 56.2734H50.7965C50.9875 57.1747 51.1131 58.0885 51.1725 59.0078H58.8281Z" fill="white"/>
<path d="M32.0117 77.0809C36.4287 77.0753 40.6674 75.3378 43.8174 72.2414C46.9674 69.145 48.7774 64.9368 48.8588 60.5205C48.8072 60.3277 48.8072 60.1247 48.8588 59.9318C48.8356 58.5213 48.6346 57.1193 48.2607 55.759C48.1231 55.5627 48.0494 55.3286 48.0496 55.0889C48.0496 55.0772 48.051 55.0658 48.0514 55.0543C47.0969 52.0945 45.3422 49.4565 42.9813 47.4323C40.6205 45.408 37.7456 44.0765 34.6748 43.5849C31.604 43.0934 28.4572 43.461 25.5824 44.6472C22.7076 45.8334 20.2171 47.7918 18.3865 50.3057C16.5558 52.8197 15.4564 55.7911 15.21 58.8912C14.9635 61.9913 15.5796 65.0991 16.99 67.8707C18.4004 70.6424 20.5502 72.9697 23.2014 74.5952C25.8526 76.2207 28.9019 77.081 32.0117 77.0809ZM32.0117 45.7393C34.877 45.7393 37.6779 46.5889 40.0602 48.1807C42.4426 49.7726 44.2994 52.0351 45.3959 54.6823C46.4924 57.3294 46.7793 60.2422 46.2203 63.0524C45.6613 65.8626 44.2815 68.4439 42.2555 70.47C40.2295 72.496 37.6482 73.8757 34.838 74.4347C32.0278 74.9937 29.115 74.7068 26.4678 73.6103C23.8207 72.5139 21.5581 70.657 19.9663 68.2747C18.3744 65.8923 17.5248 63.0914 17.5248 60.2262C17.5291 56.3853 19.0568 52.7031 21.7727 49.9872C24.4886 47.2713 28.1709 45.7436 32.0117 45.7393V45.7393Z" fill="white"/>
<path d="M43.2298 64.8731C45.7963 58.6771 42.854 51.5738 36.658 49.0073C30.462 46.4409 23.3587 49.3832 20.7922 55.5792C18.2257 61.7751 21.168 68.8785 27.364 71.445C33.56 74.0114 40.6634 71.0691 43.2298 64.8731Z" fill="white"/>
<path d="M90.1542 65.2652C92.9371 58.5466 89.7466 50.8441 83.028 48.0611C76.3094 45.2782 68.6069 48.4687 65.824 55.1873C63.0411 61.9059 66.2316 69.6084 72.9501 72.3913C79.6687 75.1742 87.3712 71.9837 90.1542 65.2652Z" fill="white"/>
<path d="M0.888 20.648H2.928C3.136 21.624 3.528 22.312 4.104 22.712C4.68 23.096 5.424 23.288 6.336 23.288C7.008 23.288 7.496 23.144 7.8 22.856C8.104 22.568 8.256 22.2 8.256 21.752C8.256 21.416 8.152 21.144 7.944 20.936C7.752 20.712 7.488 20.52 7.152 20.36C6.832 20.2 6.464 20.056 6.048 19.928C5.632 19.784 5.216 19.632 4.8 19.472C4.352 19.296 3.904 19.08 3.456 18.824C3.008 18.568 2.616 18.248 2.28 17.864C1.944 17.48 1.664 17.008 1.44 16.448C1.232 15.888 1.128 15.216 1.128 14.432C1.128 13.68 1.272 12.984 1.56 12.344C1.864 11.704 2.28 11.152 2.808 10.688C3.352 10.224 4 9.864 4.752 9.608C5.52 9.336 6.36 9.2 7.272 9.2C9.256 9.2 10.744 9.704 11.736 10.712C12.728 11.704 13.112 13.096 12.888 14.888H10.632C10.52 14.104 10.224 13.512 9.744 13.112C9.28 12.712 8.704 12.512 8.016 12.512C7.36 12.512 6.856 12.656 6.504 12.944C6.168 13.216 6 13.576 6 14.024C6 14.568 6.288 14.976 6.864 15.248C7.456 15.52 8.128 15.792 8.88 16.064C9.392 16.24 9.904 16.456 10.416 16.712C10.944 16.968 11.416 17.288 11.832 17.672C12.264 18.056 12.616 18.544 12.888 19.136C13.16 19.712 13.296 20.408 13.296 21.224C13.296 22.008 13.144 22.72 12.84 23.36C12.536 23.984 12.112 24.52 11.568 24.968C11.024 25.416 10.368 25.76 9.6 26C8.832 26.24 7.992 26.36 7.08 26.36C5 26.36 3.448 25.848 2.424 24.824C1.4 23.8 0.888 22.408 0.888 20.648ZM15.2916 9.44H22.2996C23.1796 9.44 23.9876 9.576 24.7236 9.848C25.4596 10.12 26.0836 10.496 26.5956 10.976C27.1236 11.456 27.5316 12.04 27.8196 12.728C28.1236 13.4 28.2756 14.136 28.2756 14.936C28.2756 16.84 27.7076 18.296 26.5716 19.304C25.4516 20.312 23.9636 20.816 22.1076 20.816H19.8756V26H15.2916V9.44ZM21.2196 12.68H19.8756V17.576H21.2196C21.9876 17.576 22.6196 17.384 23.1156 17C23.6116 16.6 23.8596 15.976 23.8596 15.128C23.8596 14.328 23.6116 13.72 23.1156 13.304C22.6196 12.888 21.9876 12.68 21.2196 12.68ZM39.4858 18.968H34.7818V22.76H40.8058V26H30.1978V9.44H40.4458V12.68H34.7818V15.728H39.4858V18.968ZM42.1313 17.864C42.1313 16.52 42.3233 15.312 42.7073 14.24C43.1073 13.152 43.6513 12.24 44.3393 11.504C45.0273 10.752 45.8353 10.184 46.7633 9.8C47.7073 9.4 48.7233 9.2 49.8113 9.2C50.9153 9.2 51.8273 9.384 52.5473 9.752C53.2833 10.12 53.8593 10.592 54.2753 11.168C54.6913 11.728 54.9633 12.36 55.0912 13.064C55.2352 13.768 55.2753 14.456 55.2113 15.128H52.9553C52.8753 14.632 52.6353 14.176 52.2353 13.76C51.8513 13.344 51.2593 13.136 50.4593 13.136C49.4033 13.136 48.5713 13.552 47.9633 14.384C47.3553 15.2 47.0513 16.36 47.0513 17.864C47.0513 19.528 47.3793 20.752 48.0353 21.536C48.6913 22.304 49.4993 22.688 50.4593 22.688C51.2753 22.688 51.9633 22.488 52.5233 22.088C53.0833 21.688 53.4113 21.088 53.5073 20.288H55.5473C55.5473 21.008 55.4513 21.736 55.2593 22.472C55.0673 23.192 54.7473 23.84 54.2993 24.416C53.8513 24.992 53.2513 25.464 52.4993 25.832C51.7473 26.184 50.8113 26.36 49.6913 26.36C48.5873 26.36 47.5633 26.184 46.6193 25.832C45.6913 25.48 44.8913 24.96 44.2193 24.272C43.5633 23.568 43.0513 22.68 42.6833 21.608C42.3153 20.536 42.1313 19.288 42.1313 17.864ZM65.4174 26H60.8334V12.8H56.2734V9.44H69.9774V12.8H65.4174V26ZM71.4465 26H68.0625L73.7265 9.44H78.5265L83.5185 26H78.1185L77.2545 22.496H72.5505L71.4465 26ZM73.3905 19.76H76.5825L75.1905 14.024L73.3905 19.76ZM90.9878 26H86.4038V12.8H81.8438V9.44H95.5478V12.8H90.9878V26ZM106.283 18.968H101.579V22.76H107.603V26H96.9947V9.44H107.243V12.68H101.579V15.728H106.283V18.968Z" fill="white"/>
</svg>
